<mxfile host="app.diagrams.net" modified="2023-10-02T22:09:31.696Z" agent="Mozilla/5.0 (Windows NT 10.0; Win64; x64) AppleWebKit/537.36 (KHTML, like Gecko) Chrome/116.0.0.0 Safari/537.36 OPR/102.0.0.0" etag="pVo5c3NaWhH4Hujz4d5Y" version="21.8.2" type="device">
  <diagram name="PÃ¡gina-1" id="4m3uwBHAqJwUmukn5TO9">
    <mxGraphModel dx="1393" dy="789" grid="1" gridSize="10" guides="1" tooltips="1" connect="1" arrows="1" fold="1" page="1" pageScale="1" pageWidth="1169" pageHeight="827" math="0" shadow="0">
      <root>
        <mxCell id="0" />
        <mxCell id="1" parent="0" />
        <mxCell id="K0Uhg0TzkZJcfmnQmELL-1" value="usuario_cliente" style="swimlane;fontStyle=0;childLayout=stackLayout;horizontal=1;startSize=30;horizontalStack=0;resizeParent=1;resizeParentMax=0;resizeLast=0;collapsible=1;marginBottom=0;whiteSpace=wrap;html=1;labelBackgroundColor=none;fillColor=#F2CC8F;strokeColor=#E07A5F;fontColor=#393C56;" parent="1" vertex="1">
          <mxGeometry x="10" y="50" width="180" height="240" as="geometry" />
        </mxCell>
        <mxCell id="K0Uhg0TzkZJcfmnQmELL-2" value="&lt;b&gt;PK &lt;/b&gt;cod_user_cliente (varchar)" style="text;strokeColor=none;fillColor=none;align=left;verticalAlign=middle;spacingLeft=4;spacingRight=4;overflow=hidden;points=[[0,0.5],[1,0.5]];portConstraint=eastwest;rotatable=0;whiteSpace=wrap;html=1;labelBackgroundColor=none;fontColor=#393C56;" parent="K0Uhg0TzkZJcfmnQmELL-1" vertex="1">
          <mxGeometry y="30" width="180" height="30" as="geometry" />
        </mxCell>
        <mxCell id="K0Uhg0TzkZJcfmnQmELL-3" value="login (varchar)" style="text;strokeColor=none;fillColor=none;align=left;verticalAlign=middle;spacingLeft=4;spacingRight=4;overflow=hidden;points=[[0,0.5],[1,0.5]];portConstraint=eastwest;rotatable=0;whiteSpace=wrap;html=1;labelBackgroundColor=none;fontColor=#393C56;" parent="K0Uhg0TzkZJcfmnQmELL-1" vertex="1">
          <mxGeometry y="60" width="180" height="30" as="geometry" />
        </mxCell>
        <mxCell id="K0Uhg0TzkZJcfmnQmELL-4" value="senha (varchar)" style="text;strokeColor=none;fillColor=none;align=left;verticalAlign=middle;spacingLeft=4;spacingRight=4;overflow=hidden;points=[[0,0.5],[1,0.5]];portConstraint=eastwest;rotatable=0;whiteSpace=wrap;html=1;labelBackgroundColor=none;fontColor=#393C56;" parent="K0Uhg0TzkZJcfmnQmELL-1" vertex="1">
          <mxGeometry y="90" width="180" height="30" as="geometry" />
        </mxCell>
        <mxCell id="K0Uhg0TzkZJcfmnQmELL-5" value="nome_cliente (varchar)" style="text;strokeColor=none;fillColor=none;align=left;verticalAlign=middle;spacingLeft=4;spacingRight=4;overflow=hidden;points=[[0,0.5],[1,0.5]];portConstraint=eastwest;rotatable=0;whiteSpace=wrap;html=1;labelBackgroundColor=none;fontColor=#393C56;" parent="K0Uhg0TzkZJcfmnQmELL-1" vertex="1">
          <mxGeometry y="120" width="180" height="30" as="geometry" />
        </mxCell>
        <mxCell id="K0Uhg0TzkZJcfmnQmELL-6" value="cpf_cliente (int)" style="text;strokeColor=none;fillColor=none;align=left;verticalAlign=middle;spacingLeft=4;spacingRight=4;overflow=hidden;points=[[0,0.5],[1,0.5]];portConstraint=eastwest;rotatable=0;whiteSpace=wrap;html=1;labelBackgroundColor=none;fontColor=#393C56;" parent="K0Uhg0TzkZJcfmnQmELL-1" vertex="1">
          <mxGeometry y="150" width="180" height="30" as="geometry" />
        </mxCell>
        <mxCell id="K0Uhg0TzkZJcfmnQmELL-8" value="endereco (varchar)" style="text;strokeColor=none;fillColor=none;align=left;verticalAlign=middle;spacingLeft=4;spacingRight=4;overflow=hidden;points=[[0,0.5],[1,0.5]];portConstraint=eastwest;rotatable=0;whiteSpace=wrap;html=1;labelBackgroundColor=none;fontColor=#393C56;" parent="K0Uhg0TzkZJcfmnQmELL-1" vertex="1">
          <mxGeometry y="180" width="180" height="30" as="geometry" />
        </mxCell>
        <mxCell id="K0Uhg0TzkZJcfmnQmELL-9" value="telefone (int)" style="text;strokeColor=none;fillColor=none;align=left;verticalAlign=middle;spacingLeft=4;spacingRight=4;overflow=hidden;points=[[0,0.5],[1,0.5]];portConstraint=eastwest;rotatable=0;whiteSpace=wrap;html=1;labelBackgroundColor=none;fontColor=#393C56;" parent="K0Uhg0TzkZJcfmnQmELL-1" vertex="1">
          <mxGeometry y="210" width="180" height="30" as="geometry" />
        </mxCell>
        <mxCell id="K0Uhg0TzkZJcfmnQmELL-10" value="compra_carrinho" style="swimlane;fontStyle=0;childLayout=stackLayout;horizontal=1;startSize=30;horizontalStack=0;resizeParent=1;resizeParentMax=0;resizeLast=0;collapsible=1;marginBottom=0;whiteSpace=wrap;html=1;strokeColor=#E07A5F;fontColor=#393C56;fillColor=#F2CC8F;labelBackgroundColor=none;" parent="1" vertex="1">
          <mxGeometry x="570" y="50" width="190" height="240" as="geometry" />
        </mxCell>
        <mxCell id="K0Uhg0TzkZJcfmnQmELL-11" value="&lt;b&gt;PK &lt;/b&gt;cod_carrinho (varchar)" style="text;strokeColor=none;fillColor=none;align=left;verticalAlign=middle;spacingLeft=4;spacingRight=4;overflow=hidden;points=[[0,0.5],[1,0.5]];portConstraint=eastwest;rotatable=0;whiteSpace=wrap;html=1;fontColor=#393C56;labelBackgroundColor=none;" parent="K0Uhg0TzkZJcfmnQmELL-10" vertex="1">
          <mxGeometry y="30" width="190" height="30" as="geometry" />
        </mxCell>
        <mxCell id="K0Uhg0TzkZJcfmnQmELL-12" value="FK cod_produtos (varchar)" style="text;strokeColor=none;fillColor=none;align=left;verticalAlign=middle;spacingLeft=4;spacingRight=4;overflow=hidden;points=[[0,0.5],[1,0.5]];portConstraint=eastwest;rotatable=0;whiteSpace=wrap;html=1;fontColor=#393C56;labelBackgroundColor=none;" parent="K0Uhg0TzkZJcfmnQmELL-10" vertex="1">
          <mxGeometry y="60" width="190" height="30" as="geometry" />
        </mxCell>
        <mxCell id="Ctf8yKLeRsu5etOXuzhX-51" value="FK cod_sistema (varchar)" style="text;strokeColor=none;fillColor=none;align=left;verticalAlign=middle;spacingLeft=4;spacingRight=4;overflow=hidden;points=[[0,0.5],[1,0.5]];portConstraint=eastwest;rotatable=0;whiteSpace=wrap;html=1;fontColor=#393C56;labelBackgroundColor=none;" parent="K0Uhg0TzkZJcfmnQmELL-10" vertex="1">
          <mxGeometry y="90" width="190" height="30" as="geometry" />
        </mxCell>
        <mxCell id="L11cQ9dnAxRrZakwCtNZ-1" value="FK cod_pedido (varchar)" style="text;strokeColor=none;fillColor=none;align=left;verticalAlign=middle;spacingLeft=4;spacingRight=4;overflow=hidden;points=[[0,0.5],[1,0.5]];portConstraint=eastwest;rotatable=0;whiteSpace=wrap;html=1;fontColor=#393C56;labelBackgroundColor=none;" parent="K0Uhg0TzkZJcfmnQmELL-10" vertex="1">
          <mxGeometry y="120" width="190" height="30" as="geometry" />
        </mxCell>
        <mxCell id="K0Uhg0TzkZJcfmnQmELL-13" value="nome_produtos (varchar)" style="text;strokeColor=none;fillColor=none;align=left;verticalAlign=middle;spacingLeft=4;spacingRight=4;overflow=hidden;points=[[0,0.5],[1,0.5]];portConstraint=eastwest;rotatable=0;whiteSpace=wrap;html=1;fontColor=#393C56;labelBackgroundColor=none;" parent="K0Uhg0TzkZJcfmnQmELL-10" vertex="1">
          <mxGeometry y="150" width="190" height="30" as="geometry" />
        </mxCell>
        <mxCell id="K0Uhg0TzkZJcfmnQmELL-14" value="qtd_produtos (int)" style="text;strokeColor=none;fillColor=none;align=left;verticalAlign=middle;spacingLeft=4;spacingRight=4;overflow=hidden;points=[[0,0.5],[1,0.5]];portConstraint=eastwest;rotatable=0;whiteSpace=wrap;html=1;fontColor=#393C56;labelBackgroundColor=none;" parent="K0Uhg0TzkZJcfmnQmELL-10" vertex="1">
          <mxGeometry y="180" width="190" height="30" as="geometry" />
        </mxCell>
        <mxCell id="K0Uhg0TzkZJcfmnQmELL-15" value="vlr_produtos (double)" style="text;strokeColor=none;fillColor=none;align=left;verticalAlign=middle;spacingLeft=4;spacingRight=4;overflow=hidden;points=[[0,0.5],[1,0.5]];portConstraint=eastwest;rotatable=0;whiteSpace=wrap;html=1;fontColor=#393C56;labelBackgroundColor=none;" parent="K0Uhg0TzkZJcfmnQmELL-10" vertex="1">
          <mxGeometry y="210" width="190" height="30" as="geometry" />
        </mxCell>
        <mxCell id="K0Uhg0TzkZJcfmnQmELL-16" value="usuario_vendedor" style="swimlane;fontStyle=0;childLayout=stackLayout;horizontal=1;startSize=30;horizontalStack=0;resizeParent=1;resizeParentMax=0;resizeLast=0;collapsible=1;marginBottom=0;whiteSpace=wrap;html=1;strokeColor=#E07A5F;fontColor=#393C56;fillColor=#F2CC8F;labelBackgroundColor=none;" parent="1" vertex="1">
          <mxGeometry x="10" y="410" width="180" height="330" as="geometry" />
        </mxCell>
        <mxCell id="K0Uhg0TzkZJcfmnQmELL-17" value="&lt;b&gt;PK &lt;/b&gt;cod_user_vendedor (varchar)" style="text;strokeColor=none;fillColor=none;align=left;verticalAlign=middle;spacingLeft=4;spacingRight=4;overflow=hidden;points=[[0,0.5],[1,0.5]];portConstraint=eastwest;rotatable=0;whiteSpace=wrap;html=1;fontColor=#393C56;labelBackgroundColor=none;" parent="K0Uhg0TzkZJcfmnQmELL-16" vertex="1">
          <mxGeometry y="30" width="180" height="30" as="geometry" />
        </mxCell>
        <mxCell id="K0Uhg0TzkZJcfmnQmELL-18" value="FK cod_loja_fisica (varchar)" style="text;strokeColor=none;fillColor=none;align=left;verticalAlign=middle;spacingLeft=4;spacingRight=4;overflow=hidden;points=[[0,0.5],[1,0.5]];portConstraint=eastwest;rotatable=0;whiteSpace=wrap;html=1;fontColor=#393C56;labelBackgroundColor=none;" parent="K0Uhg0TzkZJcfmnQmELL-16" vertex="1">
          <mxGeometry y="60" width="180" height="30" as="geometry" />
        </mxCell>
        <mxCell id="Ctf8yKLeRsu5etOXuzhX-40" value="login (varchar)" style="text;strokeColor=none;fillColor=none;align=left;verticalAlign=middle;spacingLeft=4;spacingRight=4;overflow=hidden;points=[[0,0.5],[1,0.5]];portConstraint=eastwest;rotatable=0;whiteSpace=wrap;html=1;fontColor=#393C56;labelBackgroundColor=none;" parent="K0Uhg0TzkZJcfmnQmELL-16" vertex="1">
          <mxGeometry y="90" width="180" height="30" as="geometry" />
        </mxCell>
        <mxCell id="Ctf8yKLeRsu5etOXuzhX-41" value="senha (varchar)" style="text;strokeColor=none;fillColor=none;align=left;verticalAlign=middle;spacingLeft=4;spacingRight=4;overflow=hidden;points=[[0,0.5],[1,0.5]];portConstraint=eastwest;rotatable=0;whiteSpace=wrap;html=1;fontColor=#393C56;labelBackgroundColor=none;" parent="K0Uhg0TzkZJcfmnQmELL-16" vertex="1">
          <mxGeometry y="120" width="180" height="30" as="geometry" />
        </mxCell>
        <mxCell id="K0Uhg0TzkZJcfmnQmELL-20" value="nome_vendedor (varchar)" style="text;strokeColor=none;fillColor=none;align=left;verticalAlign=middle;spacingLeft=4;spacingRight=4;overflow=hidden;points=[[0,0.5],[1,0.5]];portConstraint=eastwest;rotatable=0;whiteSpace=wrap;html=1;fontColor=#393C56;labelBackgroundColor=none;" parent="K0Uhg0TzkZJcfmnQmELL-16" vertex="1">
          <mxGeometry y="150" width="180" height="30" as="geometry" />
        </mxCell>
        <mxCell id="Ctf8yKLeRsu5etOXuzhX-63" value="cpf_vendedor (int)" style="text;strokeColor=none;fillColor=none;align=left;verticalAlign=middle;spacingLeft=4;spacingRight=4;overflow=hidden;points=[[0,0.5],[1,0.5]];portConstraint=eastwest;rotatable=0;whiteSpace=wrap;html=1;fontColor=#393C56;labelBackgroundColor=none;" parent="K0Uhg0TzkZJcfmnQmELL-16" vertex="1">
          <mxGeometry y="180" width="180" height="30" as="geometry" />
        </mxCell>
        <mxCell id="B6Ryg8RX97N4suaD7J7_-43" value="cnpj_vendedor (int)" style="text;strokeColor=none;fillColor=none;align=left;verticalAlign=middle;spacingLeft=4;spacingRight=4;overflow=hidden;points=[[0,0.5],[1,0.5]];portConstraint=eastwest;rotatable=0;whiteSpace=wrap;html=1;fontColor=#393C56;labelBackgroundColor=none;" parent="K0Uhg0TzkZJcfmnQmELL-16" vertex="1">
          <mxGeometry y="210" width="180" height="30" as="geometry" />
        </mxCell>
        <mxCell id="K0Uhg0TzkZJcfmnQmELL-21" value="endereco (varchar)" style="text;strokeColor=none;fillColor=none;align=left;verticalAlign=middle;spacingLeft=4;spacingRight=4;overflow=hidden;points=[[0,0.5],[1,0.5]];portConstraint=eastwest;rotatable=0;whiteSpace=wrap;html=1;fontColor=#393C56;labelBackgroundColor=none;" parent="K0Uhg0TzkZJcfmnQmELL-16" vertex="1">
          <mxGeometry y="240" width="180" height="30" as="geometry" />
        </mxCell>
        <mxCell id="Ctf8yKLeRsu5etOXuzhX-64" value="telefone (int)" style="text;strokeColor=none;fillColor=none;align=left;verticalAlign=middle;spacingLeft=4;spacingRight=4;overflow=hidden;points=[[0,0.5],[1,0.5]];portConstraint=eastwest;rotatable=0;whiteSpace=wrap;html=1;fontColor=#393C56;labelBackgroundColor=none;" parent="K0Uhg0TzkZJcfmnQmELL-16" vertex="1">
          <mxGeometry y="270" width="180" height="30" as="geometry" />
        </mxCell>
        <mxCell id="p94Z8XXR6PlwoEvJo_Db-1" value="admin (boolean)" style="text;strokeColor=none;fillColor=none;align=left;verticalAlign=middle;spacingLeft=4;spacingRight=4;overflow=hidden;points=[[0,0.5],[1,0.5]];portConstraint=eastwest;rotatable=0;whiteSpace=wrap;html=1;fontColor=#393C56;labelBackgroundColor=none;" vertex="1" parent="K0Uhg0TzkZJcfmnQmELL-16">
          <mxGeometry y="300" width="180" height="30" as="geometry" />
        </mxCell>
        <mxCell id="K0Uhg0TzkZJcfmnQmELL-22" value="loja_fisica" style="swimlane;fontStyle=0;childLayout=stackLayout;horizontal=1;startSize=30;horizontalStack=0;resizeParent=1;resizeParentMax=0;resizeLast=0;collapsible=1;marginBottom=0;whiteSpace=wrap;html=1;strokeColor=#E07A5F;fontColor=#393C56;fillColor=#F2CC8F;labelBackgroundColor=none;" parent="1" vertex="1">
          <mxGeometry x="270" y="510" width="210" height="260" as="geometry" />
        </mxCell>
        <mxCell id="K0Uhg0TzkZJcfmnQmELL-23" value="&lt;b&gt;PK &lt;/b&gt;cod_loja_fisica (varchar)" style="text;strokeColor=none;fillColor=none;align=left;verticalAlign=middle;spacingLeft=4;spacingRight=4;overflow=hidden;points=[[0,0.5],[1,0.5]];portConstraint=eastwest;rotatable=0;whiteSpace=wrap;html=1;fontColor=#393C56;labelBackgroundColor=none;" parent="K0Uhg0TzkZJcfmnQmELL-22" vertex="1">
          <mxGeometry y="30" width="210" height="30" as="geometry" />
        </mxCell>
        <mxCell id="Ctf8yKLeRsu5etOXuzhX-35" value="FK cod_estoque (varchar)" style="text;strokeColor=none;fillColor=none;align=left;verticalAlign=middle;spacingLeft=4;spacingRight=4;overflow=hidden;points=[[0,0.5],[1,0.5]];portConstraint=eastwest;rotatable=0;whiteSpace=wrap;html=1;fontColor=#393C56;labelBackgroundColor=none;" parent="K0Uhg0TzkZJcfmnQmELL-22" vertex="1">
          <mxGeometry y="60" width="210" height="30" as="geometry" />
        </mxCell>
        <mxCell id="Ctf8yKLeRsu5etOXuzhX-67" value="FK cod_fornecedor_bebida (varchar)" style="text;strokeColor=none;fillColor=none;align=left;verticalAlign=middle;spacingLeft=4;spacingRight=4;overflow=hidden;points=[[0,0.5],[1,0.5]];portConstraint=eastwest;rotatable=0;whiteSpace=wrap;html=1;fontColor=#393C56;labelBackgroundColor=none;" parent="K0Uhg0TzkZJcfmnQmELL-22" vertex="1">
          <mxGeometry y="90" width="210" height="50" as="geometry" />
        </mxCell>
        <mxCell id="K0Uhg0TzkZJcfmnQmELL-24" value="nome_loja (varchar)" style="text;strokeColor=none;fillColor=none;align=left;verticalAlign=middle;spacingLeft=4;spacingRight=4;overflow=hidden;points=[[0,0.5],[1,0.5]];portConstraint=eastwest;rotatable=0;whiteSpace=wrap;html=1;fontColor=#393C56;labelBackgroundColor=none;" parent="K0Uhg0TzkZJcfmnQmELL-22" vertex="1">
          <mxGeometry y="140" width="210" height="30" as="geometry" />
        </mxCell>
        <mxCell id="K0Uhg0TzkZJcfmnQmELL-25" value="endereco_loja (varchar)" style="text;strokeColor=none;fillColor=none;align=left;verticalAlign=middle;spacingLeft=4;spacingRight=4;overflow=hidden;points=[[0,0.5],[1,0.5]];portConstraint=eastwest;rotatable=0;whiteSpace=wrap;html=1;fontColor=#393C56;labelBackgroundColor=none;" parent="K0Uhg0TzkZJcfmnQmELL-22" vertex="1">
          <mxGeometry y="170" width="210" height="30" as="geometry" />
        </mxCell>
        <mxCell id="K0Uhg0TzkZJcfmnQmELL-26" value="telefone_loja (int)" style="text;strokeColor=none;fillColor=none;align=left;verticalAlign=middle;spacingLeft=4;spacingRight=4;overflow=hidden;points=[[0,0.5],[1,0.5]];portConstraint=eastwest;rotatable=0;whiteSpace=wrap;html=1;fontColor=#393C56;labelBackgroundColor=none;" parent="K0Uhg0TzkZJcfmnQmELL-22" vertex="1">
          <mxGeometry y="200" width="210" height="30" as="geometry" />
        </mxCell>
        <mxCell id="Ctf8yKLeRsu5etOXuzhX-39" value="produtos_vendidos (varchar)" style="text;strokeColor=none;fillColor=none;align=left;verticalAlign=middle;spacingLeft=4;spacingRight=4;overflow=hidden;points=[[0,0.5],[1,0.5]];portConstraint=eastwest;rotatable=0;whiteSpace=wrap;html=1;fontColor=#393C56;labelBackgroundColor=none;" parent="K0Uhg0TzkZJcfmnQmELL-22" vertex="1">
          <mxGeometry y="230" width="210" height="30" as="geometry" />
        </mxCell>
        <mxCell id="K0Uhg0TzkZJcfmnQmELL-27" value="status_pedido" style="swimlane;fontStyle=0;childLayout=stackLayout;horizontal=1;startSize=30;horizontalStack=0;resizeParent=1;resizeParentMax=0;resizeLast=0;collapsible=1;marginBottom=0;whiteSpace=wrap;html=1;strokeColor=#E07A5F;fontColor=#393C56;fillColor=#F2CC8F;labelBackgroundColor=none;" parent="1" vertex="1">
          <mxGeometry x="1000" y="50" width="160" height="120" as="geometry" />
        </mxCell>
        <mxCell id="K0Uhg0TzkZJcfmnQmELL-28" value="&lt;b&gt;PK &lt;/b&gt;cod_status (varchar)" style="text;strokeColor=none;fillColor=none;align=left;verticalAlign=middle;spacingLeft=4;spacingRight=4;overflow=hidden;points=[[0,0.5],[1,0.5]];portConstraint=eastwest;rotatable=0;whiteSpace=wrap;html=1;fontColor=#393C56;labelBackgroundColor=none;" parent="K0Uhg0TzkZJcfmnQmELL-27" vertex="1">
          <mxGeometry y="30" width="160" height="30" as="geometry" />
        </mxCell>
        <mxCell id="K0Uhg0TzkZJcfmnQmELL-29" value="status_pedido (varchar)" style="text;strokeColor=none;fillColor=none;align=left;verticalAlign=middle;spacingLeft=4;spacingRight=4;overflow=hidden;points=[[0,0.5],[1,0.5]];portConstraint=eastwest;rotatable=0;whiteSpace=wrap;html=1;fontColor=#393C56;labelBackgroundColor=none;" parent="K0Uhg0TzkZJcfmnQmELL-27" vertex="1">
          <mxGeometry y="60" width="160" height="30" as="geometry" />
        </mxCell>
        <mxCell id="K0Uhg0TzkZJcfmnQmELL-40" value="tempo_espera_pedido (time)" style="text;strokeColor=none;fillColor=none;align=left;verticalAlign=middle;spacingLeft=4;spacingRight=4;overflow=hidden;points=[[0,0.5],[1,0.5]];portConstraint=eastwest;rotatable=0;whiteSpace=wrap;html=1;fontColor=#393C56;labelBackgroundColor=none;" parent="K0Uhg0TzkZJcfmnQmELL-27" vertex="1">
          <mxGeometry y="90" width="160" height="30" as="geometry" />
        </mxCell>
        <mxCell id="K0Uhg0TzkZJcfmnQmELL-31" value="pedido" style="swimlane;fontStyle=0;childLayout=stackLayout;horizontal=1;startSize=30;horizontalStack=0;resizeParent=1;resizeParentMax=0;resizeLast=0;collapsible=1;marginBottom=0;whiteSpace=wrap;html=1;strokeColor=#E07A5F;fontColor=#393C56;fillColor=#F2CC8F;labelBackgroundColor=none;" parent="1" vertex="1">
          <mxGeometry x="800" y="50" width="160" height="180" as="geometry" />
        </mxCell>
        <mxCell id="K0Uhg0TzkZJcfmnQmELL-32" value="&lt;b&gt;PK &lt;/b&gt;cod_pedido (varchar)" style="text;strokeColor=none;fillColor=none;align=left;verticalAlign=middle;spacingLeft=4;spacingRight=4;overflow=hidden;points=[[0,0.5],[1,0.5]];portConstraint=eastwest;rotatable=0;whiteSpace=wrap;html=1;fontColor=#393C56;labelBackgroundColor=none;" parent="K0Uhg0TzkZJcfmnQmELL-31" vertex="1">
          <mxGeometry y="30" width="160" height="30" as="geometry" />
        </mxCell>
        <mxCell id="K0Uhg0TzkZJcfmnQmELL-36" value="FK cod_status&amp;nbsp; (varchar)" style="text;strokeColor=none;fillColor=none;align=left;verticalAlign=middle;spacingLeft=4;spacingRight=4;overflow=hidden;points=[[0,0.5],[1,0.5]];portConstraint=eastwest;rotatable=0;whiteSpace=wrap;html=1;fontColor=#393C56;labelBackgroundColor=none;" parent="K0Uhg0TzkZJcfmnQmELL-31" vertex="1">
          <mxGeometry y="60" width="160" height="30" as="geometry" />
        </mxCell>
        <mxCell id="K0Uhg0TzkZJcfmnQmELL-33" value="data_pedido (date)" style="text;strokeColor=none;fillColor=none;align=left;verticalAlign=middle;spacingLeft=4;spacingRight=4;overflow=hidden;points=[[0,0.5],[1,0.5]];portConstraint=eastwest;rotatable=0;whiteSpace=wrap;html=1;fontColor=#393C56;labelBackgroundColor=none;" parent="K0Uhg0TzkZJcfmnQmELL-31" vertex="1">
          <mxGeometry y="90" width="160" height="30" as="geometry" />
        </mxCell>
        <mxCell id="K0Uhg0TzkZJcfmnQmELL-34" value="horario_pedido (time)" style="text;strokeColor=none;fillColor=none;align=left;verticalAlign=middle;spacingLeft=4;spacingRight=4;overflow=hidden;points=[[0,0.5],[1,0.5]];portConstraint=eastwest;rotatable=0;whiteSpace=wrap;html=1;fontColor=#393C56;labelBackgroundColor=none;" parent="K0Uhg0TzkZJcfmnQmELL-31" vertex="1">
          <mxGeometry y="120" width="160" height="30" as="geometry" />
        </mxCell>
        <mxCell id="Ctf8yKLeRsu5etOXuzhX-7" value="vlr_total_pedido (double)" style="text;strokeColor=none;fillColor=none;align=left;verticalAlign=middle;spacingLeft=4;spacingRight=4;overflow=hidden;points=[[0,0.5],[1,0.5]];portConstraint=eastwest;rotatable=0;whiteSpace=wrap;html=1;fontColor=#393C56;labelBackgroundColor=none;" parent="K0Uhg0TzkZJcfmnQmELL-31" vertex="1">
          <mxGeometry y="150" width="160" height="30" as="geometry" />
        </mxCell>
        <mxCell id="Ctf8yKLeRsu5etOXuzhX-1" value="sistema" style="swimlane;fontStyle=0;childLayout=stackLayout;horizontal=1;startSize=30;horizontalStack=0;resizeParent=1;resizeParentMax=0;resizeLast=0;collapsible=1;marginBottom=0;whiteSpace=wrap;html=1;labelBackgroundColor=none;fillColor=#F2CC8F;strokeColor=#E07A5F;fontColor=#393C56;" parent="1" vertex="1">
          <mxGeometry x="270" y="310" width="210" height="180" as="geometry" />
        </mxCell>
        <mxCell id="Ctf8yKLeRsu5etOXuzhX-2" value="&lt;b&gt;PK &lt;/b&gt;cod_sistema (varchar)" style="text;strokeColor=none;fillColor=none;align=left;verticalAlign=middle;spacingLeft=4;spacingRight=4;overflow=hidden;points=[[0,0.5],[1,0.5]];portConstraint=eastwest;rotatable=0;whiteSpace=wrap;html=1;labelBackgroundColor=none;fontColor=#393C56;" parent="Ctf8yKLeRsu5etOXuzhX-1" vertex="1">
          <mxGeometry y="30" width="210" height="30" as="geometry" />
        </mxCell>
        <mxCell id="Ctf8yKLeRsu5etOXuzhX-3" value="&lt;b&gt;FK &lt;/b&gt;cod_user_cliente (varchar)" style="text;strokeColor=none;fillColor=none;align=left;verticalAlign=middle;spacingLeft=4;spacingRight=4;overflow=hidden;points=[[0,0.5],[1,0.5]];portConstraint=eastwest;rotatable=0;whiteSpace=wrap;html=1;labelBackgroundColor=none;fontColor=#393C56;" parent="Ctf8yKLeRsu5etOXuzhX-1" vertex="1">
          <mxGeometry y="60" width="210" height="30" as="geometry" />
        </mxCell>
        <mxCell id="Ctf8yKLeRsu5etOXuzhX-26" value="&lt;b&gt;FK &lt;/b&gt;cod_user_vendedor (varchar)" style="text;strokeColor=none;fillColor=none;align=left;verticalAlign=middle;spacingLeft=4;spacingRight=4;overflow=hidden;points=[[0,0.5],[1,0.5]];portConstraint=eastwest;rotatable=0;whiteSpace=wrap;html=1;labelBackgroundColor=none;fontColor=#393C56;" parent="Ctf8yKLeRsu5etOXuzhX-1" vertex="1">
          <mxGeometry y="90" width="210" height="30" as="geometry" />
        </mxCell>
        <mxCell id="Ctf8yKLeRsu5etOXuzhX-27" value="login (varchar)" style="text;strokeColor=none;fillColor=none;align=left;verticalAlign=middle;spacingLeft=4;spacingRight=4;overflow=hidden;points=[[0,0.5],[1,0.5]];portConstraint=eastwest;rotatable=0;whiteSpace=wrap;html=1;labelBackgroundColor=none;fontColor=#393C56;" parent="Ctf8yKLeRsu5etOXuzhX-1" vertex="1">
          <mxGeometry y="120" width="210" height="30" as="geometry" />
        </mxCell>
        <mxCell id="Ctf8yKLeRsu5etOXuzhX-28" value="senha (varchar)" style="text;strokeColor=none;fillColor=none;align=left;verticalAlign=middle;spacingLeft=4;spacingRight=4;overflow=hidden;points=[[0,0.5],[1,0.5]];portConstraint=eastwest;rotatable=0;whiteSpace=wrap;html=1;labelBackgroundColor=none;fontColor=#393C56;" parent="Ctf8yKLeRsu5etOXuzhX-1" vertex="1">
          <mxGeometry y="150" width="210" height="30" as="geometry" />
        </mxCell>
        <mxCell id="Ctf8yKLeRsu5etOXuzhX-8" value="fornecedor_de_bebidas" style="swimlane;fontStyle=0;childLayout=stackLayout;horizontal=1;startSize=30;horizontalStack=0;resizeParent=1;resizeParentMax=0;resizeLast=0;collapsible=1;marginBottom=0;whiteSpace=wrap;html=1;strokeColor=#E07A5F;fontColor=#393C56;fillColor=#F2CC8F;labelBackgroundColor=none;" parent="1" vertex="1">
          <mxGeometry x="570" y="550" width="210" height="260" as="geometry" />
        </mxCell>
        <mxCell id="Ctf8yKLeRsu5etOXuzhX-9" value="&lt;b&gt;PK &lt;/b&gt;cod_fornecedor_bebida (varchar)" style="text;strokeColor=none;fillColor=none;align=left;verticalAlign=middle;spacingLeft=4;spacingRight=4;overflow=hidden;points=[[0,0.5],[1,0.5]];portConstraint=eastwest;rotatable=0;whiteSpace=wrap;html=1;fontColor=#393C56;labelBackgroundColor=none;" parent="Ctf8yKLeRsu5etOXuzhX-8" vertex="1">
          <mxGeometry y="30" width="210" height="50" as="geometry" />
        </mxCell>
        <mxCell id="Ctf8yKLeRsu5etOXuzhX-10" value="nome_fornecedor (varchar)" style="text;strokeColor=none;fillColor=none;align=left;verticalAlign=middle;spacingLeft=4;spacingRight=4;overflow=hidden;points=[[0,0.5],[1,0.5]];portConstraint=eastwest;rotatable=0;whiteSpace=wrap;html=1;fontColor=#393C56;labelBackgroundColor=none;" parent="Ctf8yKLeRsu5etOXuzhX-8" vertex="1">
          <mxGeometry y="80" width="210" height="30" as="geometry" />
        </mxCell>
        <mxCell id="Ctf8yKLeRsu5etOXuzhX-11" value="endereco_fornecedor (varchar)" style="text;strokeColor=none;fillColor=none;align=left;verticalAlign=middle;spacingLeft=4;spacingRight=4;overflow=hidden;points=[[0,0.5],[1,0.5]];portConstraint=eastwest;rotatable=0;whiteSpace=wrap;html=1;fontColor=#393C56;labelBackgroundColor=none;" parent="Ctf8yKLeRsu5etOXuzhX-8" vertex="1">
          <mxGeometry y="110" width="210" height="30" as="geometry" />
        </mxCell>
        <mxCell id="Ctf8yKLeRsu5etOXuzhX-12" value="telefone_fornecedor (int)" style="text;strokeColor=none;fillColor=none;align=left;verticalAlign=middle;spacingLeft=4;spacingRight=4;overflow=hidden;points=[[0,0.5],[1,0.5]];portConstraint=eastwest;rotatable=0;whiteSpace=wrap;html=1;fontColor=#393C56;labelBackgroundColor=none;" parent="Ctf8yKLeRsu5etOXuzhX-8" vertex="1">
          <mxGeometry y="140" width="210" height="30" as="geometry" />
        </mxCell>
        <mxCell id="Ctf8yKLeRsu5etOXuzhX-20" value="descricao_bebidas (varchar)" style="text;strokeColor=none;fillColor=none;align=left;verticalAlign=middle;spacingLeft=4;spacingRight=4;overflow=hidden;points=[[0,0.5],[1,0.5]];portConstraint=eastwest;rotatable=0;whiteSpace=wrap;html=1;fontColor=#393C56;labelBackgroundColor=none;" parent="Ctf8yKLeRsu5etOXuzhX-8" vertex="1">
          <mxGeometry y="170" width="210" height="30" as="geometry" />
        </mxCell>
        <mxCell id="Ctf8yKLeRsu5etOXuzhX-13" value="preco_unitario (double)" style="text;strokeColor=none;fillColor=none;align=left;verticalAlign=middle;spacingLeft=4;spacingRight=4;overflow=hidden;points=[[0,0.5],[1,0.5]];portConstraint=eastwest;rotatable=0;whiteSpace=wrap;html=1;fontColor=#393C56;labelBackgroundColor=none;" parent="Ctf8yKLeRsu5etOXuzhX-8" vertex="1">
          <mxGeometry y="200" width="210" height="30" as="geometry" />
        </mxCell>
        <mxCell id="Ctf8yKLeRsu5etOXuzhX-14" value="qtd_bebidas (int)" style="text;strokeColor=none;fillColor=none;align=left;verticalAlign=middle;spacingLeft=4;spacingRight=4;overflow=hidden;points=[[0,0.5],[1,0.5]];portConstraint=eastwest;rotatable=0;whiteSpace=wrap;html=1;fontColor=#393C56;labelBackgroundColor=none;" parent="Ctf8yKLeRsu5etOXuzhX-8" vertex="1">
          <mxGeometry y="230" width="210" height="30" as="geometry" />
        </mxCell>
        <mxCell id="Ctf8yKLeRsu5etOXuzhX-15" value="estoque" style="swimlane;fontStyle=0;childLayout=stackLayout;horizontal=1;startSize=30;horizontalStack=0;resizeParent=1;resizeParentMax=0;resizeLast=0;collapsible=1;marginBottom=0;whiteSpace=wrap;html=1;strokeColor=#E07A5F;fontColor=#393C56;fillColor=#F2CC8F;labelBackgroundColor=none;" parent="1" vertex="1">
          <mxGeometry x="570" y="410" width="210" height="120" as="geometry" />
        </mxCell>
        <mxCell id="Ctf8yKLeRsu5etOXuzhX-16" value="&lt;b&gt;PK &lt;/b&gt;cod_estoque (varchar)" style="text;strokeColor=none;fillColor=none;align=left;verticalAlign=middle;spacingLeft=4;spacingRight=4;overflow=hidden;points=[[0,0.5],[1,0.5]];portConstraint=eastwest;rotatable=0;whiteSpace=wrap;html=1;fontColor=#393C56;labelBackgroundColor=none;" parent="Ctf8yKLeRsu5etOXuzhX-15" vertex="1">
          <mxGeometry y="30" width="210" height="30" as="geometry" />
        </mxCell>
        <mxCell id="Ctf8yKLeRsu5etOXuzhX-17" value="descricao_produtos (varchar)" style="text;strokeColor=none;fillColor=none;align=left;verticalAlign=middle;spacingLeft=4;spacingRight=4;overflow=hidden;points=[[0,0.5],[1,0.5]];portConstraint=eastwest;rotatable=0;whiteSpace=wrap;html=1;fontColor=#393C56;labelBackgroundColor=none;" parent="Ctf8yKLeRsu5etOXuzhX-15" vertex="1">
          <mxGeometry y="60" width="210" height="30" as="geometry" />
        </mxCell>
        <mxCell id="Ctf8yKLeRsu5etOXuzhX-18" value="qtd_itens_estoque (varchar)" style="text;strokeColor=none;fillColor=none;align=left;verticalAlign=middle;spacingLeft=4;spacingRight=4;overflow=hidden;points=[[0,0.5],[1,0.5]];portConstraint=eastwest;rotatable=0;whiteSpace=wrap;html=1;fontColor=#393C56;labelBackgroundColor=none;" parent="Ctf8yKLeRsu5etOXuzhX-15" vertex="1">
          <mxGeometry y="90" width="210" height="30" as="geometry" />
        </mxCell>
        <mxCell id="Ctf8yKLeRsu5etOXuzhX-42" value="relatorio_de_vendas" style="swimlane;fontStyle=0;childLayout=stackLayout;horizontal=1;startSize=30;horizontalStack=0;resizeParent=1;resizeParentMax=0;resizeLast=0;collapsible=1;marginBottom=0;whiteSpace=wrap;html=1;strokeColor=#E07A5F;fontColor=#393C56;fillColor=#F2CC8F;labelBackgroundColor=none;" parent="1" vertex="1">
          <mxGeometry x="840" y="310" width="190" height="180" as="geometry" />
        </mxCell>
        <mxCell id="Ctf8yKLeRsu5etOXuzhX-43" value="&lt;b&gt;PK &lt;/b&gt;cod_relatorio (varchar)" style="text;strokeColor=none;fillColor=none;align=left;verticalAlign=middle;spacingLeft=4;spacingRight=4;overflow=hidden;points=[[0,0.5],[1,0.5]];portConstraint=eastwest;rotatable=0;whiteSpace=wrap;html=1;fontColor=#393C56;labelBackgroundColor=none;" parent="Ctf8yKLeRsu5etOXuzhX-42" vertex="1">
          <mxGeometry y="30" width="190" height="30" as="geometry" />
        </mxCell>
        <mxCell id="Ctf8yKLeRsu5etOXuzhX-47" value="FK cod_sistema (varchar)" style="text;strokeColor=none;fillColor=none;align=left;verticalAlign=middle;spacingLeft=4;spacingRight=4;overflow=hidden;points=[[0,0.5],[1,0.5]];portConstraint=eastwest;rotatable=0;whiteSpace=wrap;html=1;fontColor=#393C56;labelBackgroundColor=none;" parent="Ctf8yKLeRsu5etOXuzhX-42" vertex="1">
          <mxGeometry y="60" width="190" height="30" as="geometry" />
        </mxCell>
        <mxCell id="Ctf8yKLeRsu5etOXuzhX-45" value="vlr_total_vendas (int)" style="text;strokeColor=none;fillColor=none;align=left;verticalAlign=middle;spacingLeft=4;spacingRight=4;overflow=hidden;points=[[0,0.5],[1,0.5]];portConstraint=eastwest;rotatable=0;whiteSpace=wrap;html=1;fontColor=#393C56;labelBackgroundColor=none;" parent="Ctf8yKLeRsu5etOXuzhX-42" vertex="1">
          <mxGeometry y="90" width="190" height="30" as="geometry" />
        </mxCell>
        <mxCell id="Ctf8yKLeRsu5etOXuzhX-48" value="qtd_produtos_vendidos (double)" style="text;strokeColor=none;fillColor=none;align=left;verticalAlign=middle;spacingLeft=4;spacingRight=4;overflow=hidden;points=[[0,0.5],[1,0.5]];portConstraint=eastwest;rotatable=0;whiteSpace=wrap;html=1;fontColor=#393C56;labelBackgroundColor=none;" parent="Ctf8yKLeRsu5etOXuzhX-42" vertex="1">
          <mxGeometry y="120" width="190" height="30" as="geometry" />
        </mxCell>
        <mxCell id="Ctf8yKLeRsu5etOXuzhX-46" value="datas_relatorio (datetime)" style="text;strokeColor=none;fillColor=none;align=left;verticalAlign=middle;spacingLeft=4;spacingRight=4;overflow=hidden;points=[[0,0.5],[1,0.5]];portConstraint=eastwest;rotatable=0;whiteSpace=wrap;html=1;fontColor=#393C56;labelBackgroundColor=none;" parent="Ctf8yKLeRsu5etOXuzhX-42" vertex="1">
          <mxGeometry y="150" width="190" height="30" as="geometry" />
        </mxCell>
        <mxCell id="B6Ryg8RX97N4suaD7J7_-55" style="edgeStyle=orthogonalEdgeStyle;rounded=0;orthogonalLoop=1;jettySize=auto;html=1;entryX=0.007;entryY=0.3;entryDx=0;entryDy=0;entryPerimeter=0;strokeColor=#E07A5F;fontColor=default;fillColor=#F2CC8F;labelBackgroundColor=none;" parent="1" source="Ctf8yKLeRsu5etOXuzhX-55" target="K0Uhg0TzkZJcfmnQmELL-12" edge="1">
          <mxGeometry relative="1" as="geometry" />
        </mxCell>
        <mxCell id="Ctf8yKLeRsu5etOXuzhX-55" value="produto" style="swimlane;fontStyle=0;childLayout=stackLayout;horizontal=1;startSize=30;horizontalStack=0;resizeParent=1;resizeParentMax=0;resizeLast=0;collapsible=1;marginBottom=0;whiteSpace=wrap;html=1;strokeColor=#E07A5F;fontColor=#393C56;fillColor=#F2CC8F;labelBackgroundColor=none;" parent="1" vertex="1">
          <mxGeometry x="300" y="50" width="180" height="90" as="geometry" />
        </mxCell>
        <mxCell id="Ctf8yKLeRsu5etOXuzhX-56" value="&lt;b&gt;PK &lt;/b&gt;cod_produto (varchar)" style="text;strokeColor=none;fillColor=none;align=left;verticalAlign=middle;spacingLeft=4;spacingRight=4;overflow=hidden;points=[[0,0.5],[1,0.5]];portConstraint=eastwest;rotatable=0;whiteSpace=wrap;html=1;fontColor=#393C56;labelBackgroundColor=none;" parent="Ctf8yKLeRsu5etOXuzhX-55" vertex="1">
          <mxGeometry y="30" width="180" height="30" as="geometry" />
        </mxCell>
        <mxCell id="Ctf8yKLeRsu5etOXuzhX-57" value="descricao (varchar)" style="text;strokeColor=none;fillColor=none;align=left;verticalAlign=middle;spacingLeft=4;spacingRight=4;overflow=hidden;points=[[0,0.5],[1,0.5]];portConstraint=eastwest;rotatable=0;whiteSpace=wrap;html=1;fontColor=#393C56;labelBackgroundColor=none;" parent="Ctf8yKLeRsu5etOXuzhX-55" vertex="1">
          <mxGeometry y="60" width="180" height="30" as="geometry" />
        </mxCell>
        <mxCell id="uIgerKbGGvetV452I-at-11" value="1:N" style="text;html=1;strokeColor=none;fillColor=none;align=center;verticalAlign=middle;whiteSpace=wrap;rounded=0;labelBackgroundColor=none;fontColor=#393C56;" parent="1" vertex="1">
          <mxGeometry x="660" y="360" width="30" height="30" as="geometry" />
        </mxCell>
        <mxCell id="uIgerKbGGvetV452I-at-14" value="1:N" style="text;html=1;strokeColor=none;fillColor=none;align=center;verticalAlign=middle;whiteSpace=wrap;rounded=0;labelBackgroundColor=none;fontColor=#393C56;" parent="1" vertex="1">
          <mxGeometry x="510" y="72" width="30" height="30" as="geometry" />
        </mxCell>
        <mxCell id="uIgerKbGGvetV452I-at-22" value="1:1" style="text;html=1;strokeColor=none;fillColor=none;align=center;verticalAlign=middle;whiteSpace=wrap;rounded=0;labelBackgroundColor=none;fontColor=#393C56;" parent="1" vertex="1">
          <mxGeometry x="970" y="70" width="30" height="30" as="geometry" />
        </mxCell>
        <mxCell id="B6Ryg8RX97N4suaD7J7_-38" style="edgeStyle=orthogonalEdgeStyle;rounded=0;orthogonalLoop=1;jettySize=auto;html=1;exitX=1;exitY=0.5;exitDx=0;exitDy=0;entryX=0;entryY=0.5;entryDx=0;entryDy=0;strokeColor=#E07A5F;fontColor=default;fillColor=#F2CC8F;labelBackgroundColor=none;" parent="1" source="K0Uhg0TzkZJcfmnQmELL-2" target="Ctf8yKLeRsu5etOXuzhX-3" edge="1">
          <mxGeometry relative="1" as="geometry" />
        </mxCell>
        <mxCell id="B6Ryg8RX97N4suaD7J7_-39" value="1:1" style="text;html=1;strokeColor=none;fillColor=none;align=center;verticalAlign=middle;whiteSpace=wrap;rounded=0;fontColor=#393C56;labelBackgroundColor=none;" parent="1" vertex="1">
          <mxGeometry x="210" y="90" width="60" height="30" as="geometry" />
        </mxCell>
        <mxCell id="B6Ryg8RX97N4suaD7J7_-40" style="edgeStyle=orthogonalEdgeStyle;rounded=0;orthogonalLoop=1;jettySize=auto;html=1;exitX=1;exitY=0.5;exitDx=0;exitDy=0;entryX=0;entryY=0.5;entryDx=0;entryDy=0;strokeColor=#E07A5F;fontColor=default;fillColor=#F2CC8F;labelBackgroundColor=none;" parent="1" source="K0Uhg0TzkZJcfmnQmELL-17" target="Ctf8yKLeRsu5etOXuzhX-26" edge="1">
          <mxGeometry relative="1" as="geometry" />
        </mxCell>
        <mxCell id="B6Ryg8RX97N4suaD7J7_-41" value="1:1" style="text;html=1;strokeColor=none;fillColor=none;align=center;verticalAlign=middle;whiteSpace=wrap;rounded=0;fontColor=#393C56;labelBackgroundColor=none;" parent="1" vertex="1">
          <mxGeometry x="180" y="430" width="60" height="30" as="geometry" />
        </mxCell>
        <mxCell id="B6Ryg8RX97N4suaD7J7_-44" value="1:N" style="text;html=1;strokeColor=none;fillColor=none;align=center;verticalAlign=middle;whiteSpace=wrap;rounded=0;fontColor=#393C56;labelBackgroundColor=none;" parent="1" vertex="1">
          <mxGeometry x="200" y="560" width="60" height="30" as="geometry" />
        </mxCell>
        <mxCell id="B6Ryg8RX97N4suaD7J7_-46" style="edgeStyle=orthogonalEdgeStyle;rounded=0;orthogonalLoop=1;jettySize=auto;html=1;entryX=1;entryY=0.5;entryDx=0;entryDy=0;strokeColor=#E07A5F;fontColor=default;fillColor=#F2CC8F;labelBackgroundColor=none;" parent="1" source="Ctf8yKLeRsu5etOXuzhX-9" target="Ctf8yKLeRsu5etOXuzhX-67" edge="1">
          <mxGeometry relative="1" as="geometry" />
        </mxCell>
        <mxCell id="B6Ryg8RX97N4suaD7J7_-47" style="edgeStyle=orthogonalEdgeStyle;rounded=0;orthogonalLoop=1;jettySize=auto;html=1;entryX=1;entryY=0.5;entryDx=0;entryDy=0;strokeColor=#E07A5F;fontColor=default;fillColor=#F2CC8F;labelBackgroundColor=none;" parent="1" source="Ctf8yKLeRsu5etOXuzhX-16" target="Ctf8yKLeRsu5etOXuzhX-35" edge="1">
          <mxGeometry relative="1" as="geometry" />
        </mxCell>
        <mxCell id="B6Ryg8RX97N4suaD7J7_-48" value="1:1" style="text;html=1;strokeColor=none;fillColor=none;align=center;verticalAlign=middle;whiteSpace=wrap;rounded=0;fontColor=#393C56;labelBackgroundColor=none;" parent="1" vertex="1">
          <mxGeometry x="510" y="459" width="60" height="30" as="geometry" />
        </mxCell>
        <mxCell id="B6Ryg8RX97N4suaD7J7_-49" value="N:N" style="text;html=1;strokeColor=none;fillColor=none;align=center;verticalAlign=middle;whiteSpace=wrap;rounded=0;fontColor=#393C56;labelBackgroundColor=none;" parent="1" vertex="1">
          <mxGeometry x="510" y="600" width="60" height="30" as="geometry" />
        </mxCell>
        <mxCell id="B6Ryg8RX97N4suaD7J7_-50" style="edgeStyle=orthogonalEdgeStyle;rounded=0;orthogonalLoop=1;jettySize=auto;html=1;entryX=0;entryY=0.5;entryDx=0;entryDy=0;strokeColor=#E07A5F;fontColor=default;fillColor=#F2CC8F;labelBackgroundColor=none;" parent="1" source="Ctf8yKLeRsu5etOXuzhX-2" target="Ctf8yKLeRsu5etOXuzhX-47" edge="1">
          <mxGeometry relative="1" as="geometry" />
        </mxCell>
        <mxCell id="B6Ryg8RX97N4suaD7J7_-51" style="edgeStyle=orthogonalEdgeStyle;rounded=0;orthogonalLoop=1;jettySize=auto;html=1;exitX=0;exitY=0.5;exitDx=0;exitDy=0;entryX=1;entryY=0.5;entryDx=0;entryDy=0;strokeColor=#E07A5F;fontColor=default;fillColor=#F2CC8F;labelBackgroundColor=none;" parent="1" source="K0Uhg0TzkZJcfmnQmELL-28" target="K0Uhg0TzkZJcfmnQmELL-36" edge="1">
          <mxGeometry relative="1" as="geometry" />
        </mxCell>
        <mxCell id="B6Ryg8RX97N4suaD7J7_-57" style="edgeStyle=orthogonalEdgeStyle;rounded=0;orthogonalLoop=1;jettySize=auto;html=1;exitX=1;exitY=0.5;exitDx=0;exitDy=0;strokeColor=#E07A5F;fontColor=default;fillColor=#F2CC8F;labelBackgroundColor=none;" parent="1" source="Ctf8yKLeRsu5etOXuzhX-2" target="Ctf8yKLeRsu5etOXuzhX-51" edge="1">
          <mxGeometry relative="1" as="geometry" />
        </mxCell>
        <mxCell id="B6Ryg8RX97N4suaD7J7_-58" value="1:1" style="text;html=1;strokeColor=none;fillColor=none;align=center;verticalAlign=middle;whiteSpace=wrap;rounded=0;fontColor=#393C56;labelBackgroundColor=none;" parent="1" vertex="1">
          <mxGeometry x="510" y="190" width="60" height="30" as="geometry" />
        </mxCell>
        <mxCell id="L11cQ9dnAxRrZakwCtNZ-2" style="edgeStyle=orthogonalEdgeStyle;rounded=0;orthogonalLoop=1;jettySize=auto;html=1;exitX=0;exitY=0.5;exitDx=0;exitDy=0;entryX=1;entryY=0.5;entryDx=0;entryDy=0;labelBackgroundColor=none;strokeColor=#E07A5F;fontColor=default;" parent="1" source="K0Uhg0TzkZJcfmnQmELL-32" target="L11cQ9dnAxRrZakwCtNZ-1" edge="1">
          <mxGeometry relative="1" as="geometry" />
        </mxCell>
        <mxCell id="L11cQ9dnAxRrZakwCtNZ-3" value="1:N" style="text;html=1;strokeColor=none;fillColor=none;align=center;verticalAlign=middle;whiteSpace=wrap;rounded=0;labelBackgroundColor=none;fontColor=#393C56;" parent="1" vertex="1">
          <mxGeometry x="770" y="70" width="30" height="30" as="geometry" />
        </mxCell>
        <mxCell id="p94Z8XXR6PlwoEvJo_Db-2" style="edgeStyle=orthogonalEdgeStyle;rounded=0;orthogonalLoop=1;jettySize=auto;html=1;exitX=0;exitY=0.5;exitDx=0;exitDy=0;entryX=1;entryY=0.5;entryDx=0;entryDy=0;labelBackgroundColor=none;strokeColor=#E07A5F;fontColor=default;" edge="1" parent="1" source="K0Uhg0TzkZJcfmnQmELL-23" target="K0Uhg0TzkZJcfmnQmELL-18">
          <mxGeometry relative="1" as="geometry" />
        </mxCell>
      </root>
    </mxGraphModel>
  </diagram>
</mxfile>
